PathFileType	4	(X/Y/Z)	C:/Users/opensim2020/Desktop/walking_exp_matlab/subject03_walking08_straight_03.trc																																																																																																																																																							
DataRate	CameraRate	NumFrames	NumMarkers	Units	OrigDataRate	OrigDataStartFrame	OrigNumFrames																																																																																																																																																			
100	100	8	51	mm	100	2656	299																																																																																																																																																			
Frame#	Time	LFHD			RFHD			LBHD			RBHD			C7			T10			CLAV			STRN			RBAK			LSHO			LUPA			LELB			LFRM			LWRA			LWRB			LFIN			RSHO			RUPA			RELB			RFRM			RWRA			RWRB			RFIN			LASI			RASI			LPSI			RPSI			LTHI			LKNE			LTIB			LANK			LHEE			LTOE			RTHI			RKNE			RTIB			RANK			RHEE			RTOE			*39			*40			*41			*42			*43			*44			*45			*46			*47			*48			*49			*50		
		X1	Y1	Z1	X2	Y2	Z2	X3	Y3	Z3	X4	Y4	Z4	X5	Y5	Z5	X6	Y6	Z6	X7	Y7	Z7	X8	Y8	Z8	X9	Y9	Z9	X10	Y10	Z10	X11	Y11	Z11	X12	Y12	Z12	X13	Y13	Z13	X14	Y14	Z14	X15	Y15	Z15	X16	Y16	Z16	X17	Y17	Z17	X18	Y18	Z18	X19	Y19	Z19	X20	Y20	Z20	X21	Y21	Z21	X22	Y22	Z22	X23	Y23	Z23	X24	Y24	Z24	X25	Y25	Z25	X26	Y26	Z26	X27	Y27	Z27	X28	Y28	Z28	X29	Y29	Z29	X30	Y30	Z30	X31	Y31	Z31	X32	Y32	Z32	X33	Y33	Z33	X34	Y34	Z34	X35	Y35	Z35	X36	Y36	Z36	X37	Y37	Z37	X38	Y38	Z38	X39	Y39	Z39	X40	Y40	Z40	X41	Y41	Z41	X42	Y42	Z42	X43	Y43	Z43	X44	Y44	Z44	X45	Y45	Z45	X46	Y46	Z46	X47	Y47	Z47	X48	Y48	Z48	X49	Y49	Z49	X50	Y50	Z50	X51	Y51	Z51
																																																																																																																																																										
225	2.24	732.04895	1618.95557	-1040.4502	711.0213	1618.23572	-908.91626	602.59052	1584.41431	-1058.27051	586.68018	1582.93384	-928.55286	557.99438	1415.62292	-1003.1109	537.09747	1099.42822	-999.51648	682.86157	1343.82263	-1001.77448	733.27045	1181.45007	-1009.2674	514.19489	1235.26355	-906.18262	637.51825	1380.20337	-1157.18994	646.75262	1182.52783	-1225.50061	664.39886	1060.62061	-1235.68811	703.70941	936.01202	-1238.5238	740.17523	821.32556	-1211.21448	708.26221	822.80603	-1257.65479	731.49786	740.51105	-1248.36682	635.56104	1365.07239	-841.80463	645.43549	1142.76343	-768.16913	664.08862	1031.43994	-754.81195	683.25482	895.78302	-751.68622	715.29041	800.8103	-785.95233	684.35895	795.4743	-741.86633	710.36993	725.802	-750.89233	700.00934	936.07037	-1121.98889	715.19135	942.34595	-885.00446	541.30481	960.12329	-1062.59436	552.05304	973.02704	-914.24652	632.8764	630.88354	-1173.53369	632.07983	450.8284	-1155.43018	481.12241	320.8746	-1145.60315	338.15555	172.62859	-1096.0304	292.29407	183.8045	-1054.12219	398.2587	36.16864	-1067.24512	677.04779	648.76447	-842.39069	711.57037	471.15283	-881.91187	686.84985	282.96152	-882.78174	688.83093	67.3871	-936.18616	648.10083	35.19102	-988.27057	833.32819	32.80225	-953.0556	646.94318	1682.74646	-1000.0415	NaN	NaN	NaN	NaN	NaN	NaN	NaN	NaN	NaN	NaN	NaN	NaN	NaN	NaN	NaN	NaN	NaN	NaN	NaN	NaN	NaN	NaN	NaN	NaN	NaN	NaN	NaN	NaN	NaN	NaN	NaN	NaN	NaN
226	2.25	738.73236	1619.4126	-1039.30933	717.87347	1618.50342	-907.72382	609.45587	1583.98462	-1057.00684	593.70575	1582.34497	-927.28802	565.48297	1415.52307	-1002.04071	544.35388	1099.27112	-998.23529	690.38733	1343.72607	-1000.98724	740.51587	1181.17004	-1008.56421	521.82959	1235.15881	-904.6424	644.84186	1379.73853	-1156.45605	653.37579	1181.69958	-1224.49243	669.89563	1059.77612	-1234.97864	706.35303	934.22699	-1238.21826	739.3432	818.39465	-1211.38879	708.2193	820.95654	-1258.13672	727.59381	737.46936	-1248.42676	643.64355	1364.84534	-840.875	654.7699	1142.69312	-766.67657	674.38043	1031.56763	-753.05811	695.08698	896.13684	-750.08368	727.92126	801.6109	-784.58862	697.40936	795.87555	-740.34137	724.26526	726.65613	-749.42584	706.60999	935.38525	-1121.55164	722.72229	942.50562	-884.25909	548.01135	959.05591	-1061.72168	559.1322	973.28406	-913.45367	644.32874	630.12628	-1173.53528	647.3222	450.30576	-1156.67554	495.70581	322.27689	-1146.05139	350.58377	176.80348	-1096.02197	305.25537	187.77541	-1053.32568	410.203	39.35395	-1071.00085	683.43127	648.98804	-841.91571	715.81573	471.10971	-881.31519	689.34003	282.9541	-882.42535	688.94983	67.40736	-936.23004	648.10004	35.33221	-988.26874	833.4411	32.73695	-953.08698	653.15106	1682.58044	-998.76581	NaN	NaN	NaN	NaN	NaN	NaN	NaN	NaN	NaN	NaN	NaN	NaN	NaN	NaN	NaN	NaN	NaN	NaN	NaN	NaN	NaN	NaN	NaN	NaN	NaN	NaN	NaN	NaN	NaN	NaN	NaN	NaN	NaN
227	2.26	745.3147	1619.90234	-1038.18225	724.58337	1618.69458	-906.60687	616.28888	1583.61646	-1055.77576	600.71027	1581.72388	-925.99597	572.84167	1415.40784	-1001.04669	551.4389	1099.39233	-997.23291	697.83929	1343.62231	-1000.22845	747.79828	1180.94897	-1007.91083	529.25848	1235.27332	-903.20001	651.97168	1379.3429	-1155.82751	659.72449	1180.93591	-1223.5575	675.24908	1058.91833	-1234.22681	709.03027	932.61597	-1237.81494	738.68561	815.78107	-1211.27832	708.77448	819.60883	-1258.83875	724.13788	734.86829	-1248.45691	651.49261	1364.56506	-839.99933	664.20679	1142.68982	-765.31982	684.81403	1031.68994	-751.46521	707.00317	896.50055	-748.61084	740.6015	802.47034	-783.42834	710.54425	796.31433	-738.87744	738.3031	727.61078	-748.13037	713.17432	934.70929	-1121.02722	730.00903	942.78308	-883.62219	554.70135	958.06769	-1061.09741	566.039	973.58868	-912.79694	654.10889	630.22772	-1174.60681	662.63702	450.24167	-1157.86072	510.35736	323.97363	-1146.22852	363.97708	180.22633	-1095.97437	318.95831	190.82178	-1052.42297	422.90286	41.75154	-1074.75281	690.88281	649.11938	-842.07263	719.89276	471.04889	-880.85583	691.5321	282.94629	-882.02032	689.07257	67.50461	-936.24109	648.12122	35.46125	-988.26807	833.5379	32.67094	-953.12976	659.30054	1682.46619	-997.52081	NaN	NaN	NaN	NaN	NaN	NaN	NaN	NaN	NaN	NaN	NaN	NaN	NaN	NaN	NaN	NaN	NaN	NaN	NaN	NaN	NaN	NaN	NaN	NaN	NaN	NaN	NaN	NaN	NaN	NaN	NaN	NaN	NaN
228	2.27	751.92706	1620.35767	-1037.04126	731.31653	1618.83325	-905.44861	623.08099	1583.27588	-1054.56519	607.58813	1581.09204	-924.82343	580.17603	1415.47095	-1000.03113	558.42657	1099.43616	-996.5614	705.17957	1343.56226	-999.51031	754.8526	1180.76563	-1007.2782	536.47748	1235.47412	-901.98798	659.01111	1378.97961	-1155.20398	665.65167	1180.25391	-1222.81824	680.25183	1058.17322	-1233.64966	711.72528	931.23419	-1237.29993	738.15894	813.50134	-1210.93945	709.37531	818.31396	-1259.17078	721.24585	732.82959	-1248.47424	659.30981	1364.36951	-839.1925	673.73358	1142.76514	-764.17255	695.35834	1031.92639	-750.03845	719.0531	896.97601	-747.26453	753.32043	803.34729	-782.30981	723.82904	796.86725	-737.4848	752.48083	728.69641	-746.8313	719.70923	934.25897	-1120.51208	737.03754	943.21722	-883.0177	561.45953	957.19879	-1060.50378	572.81348	973.84204	-912.24609	664.97766	630.81628	-1174.22021	677.73199	450.48178	-1158.99487	525.12885	325.6149	-1146.2937	378.04642	182.81708	-1095.97327	333.12674	192.66667	-1051.61841	437.09949	44.01288	-1078.24548	694.70581	649.55762	-840.97516	723.98053	470.97803	-880.39441	693.6983	282.94028	-881.81549	689.20355	67.56142	-936.31409	648.13391	35.59868	-988.33197	833.62933	32.62926	-953.17963	665.51056	1682.33484	-996.22815	NaN	NaN	NaN	NaN	NaN	NaN	NaN	NaN	NaN	NaN	NaN	NaN	NaN	NaN	NaN	NaN	NaN	NaN	NaN	NaN	NaN	NaN	NaN	NaN	NaN	NaN	NaN	NaN	NaN	NaN	NaN	NaN	NaN
229	2.28	758.49139	1620.89856	-1035.93274	737.98053	1618.93152	-904.31799	629.89142	1583.03052	-1053.48669	614.48712	1580.45044	-923.69421	587.59076	1415.58289	-999.4176	565.28571	1099.54871	-995.96564	712.43652	1343.56555	-998.86212	761.52802	1180.54932	-1006.54889	543.52368	1235.72888	-900.96228	665.96832	1378.85632	-1154.67676	671.05939	1179.71777	-1222.24048	684.67877	1057.52319	-1233.23181	714.37805	930.12439	-1236.74451	738.22223	811.89899	-1210.64246	710.33881	817.50696	-1259.44421	718.95868	731.29205	-1248.3844	666.88818	1364.20508	-838.45013	682.95526	1142.72546	-762.91187	706.00269	1032.2644	-748.8103	731.20203	897.64575	-746.0896	766.00256	804.38116	-781.36218	737.38348	797.69476	-736.01642	766.68866	729.91943	-745.60352	726.29431	934.06488	-1119.75635	743.88867	943.62042	-882.38879	568.25171	956.565	-1060.03223	579.5993	974.11749	-911.64667	677.17352	630.95148	-1174.27441	692.76605	451.28983	-1160.03857	540.09808	326.90088	-1146.55688	392.66742	184.4882	-1095.97522	347.78925	193.57451	-1051.04834	452.53323	45.50124	-1081.34778	700.12683	649.58099	-840.28418	727.94611	470.86136	-880.03571	695.93317	282.91342	-881.63562	689.35541	67.66327	-936.41492	648.14355	35.77808	-988.36243	833.7373	32.58017	-953.22095	671.68091	1682.2738	-994.95154	NaN	NaN	NaN	NaN	NaN	NaN	NaN	NaN	NaN	NaN	NaN	NaN	NaN	NaN	NaN	NaN	NaN	NaN	NaN	NaN	NaN	NaN	NaN	NaN	NaN	NaN	NaN	NaN	NaN	NaN	NaN	NaN	NaN
230	2.29	765.05414	1621.42188	-1034.84155	744.53754	1618.98767	-903.22992	636.65137	1582.92493	-1052.42273	621.29395	1579.92102	-922.69562	594.67084	1415.70508	-998.53882	572.06403	1099.74744	-995.41772	719.52209	1343.62756	-998.20758	768.38782	1180.52637	-1005.94128	550.44977	1235.99158	-900.2301	672.89716	1378.88574	-1154.16968	676.05768	1179.40881	-1221.86194	688.84546	1057.08362	-1232.78748	716.91571	929.32111	-1236.13098	737.66632	810.45868	-1209.52234	711.69342	816.95172	-1259.34082	717.50006	730.24011	-1248.25293	674.32898	1364.17517	-837.80121	692.36591	1142.99548	-762.16473	716.6734	1032.80701	-747.83954	743.32428	898.43512	-744.99969	778.6781	805.51221	-780.51477	750.45459	798.55396	-734.88263	780.78204	731.33221	-744.37933	732.92169	934.19305	-1118.94153	750.60852	943.95837	-881.64642	574.8642	956.336	-1059.31897	586.2915	974.18103	-911.04456	687.448	631.52185	-1174.53149	707.45697	452.23358	-1160.88477	555.23932	327.82886	-1146.80981	408.09607	185.35954	-1095.95203	362.89471	193.36798	-1050.70935	470.1084	47.61048	-1084.03076	706.98267	649.52026	-840.44427	731.95123	470.69873	-879.80127	698.41772	282.91629	-881.52667	689.64899	67.75676	-936.48566	648.15741	35.90292	-988.40015	833.81812	32.52933	-953.2984	677.89001	1682.19373	-993.60498	NaN	NaN	NaN	NaN	NaN	NaN	NaN	NaN	NaN	NaN	NaN	NaN	NaN	NaN	NaN	NaN	NaN	NaN	NaN	NaN	NaN	NaN	NaN	NaN	NaN	NaN	NaN	NaN	NaN	NaN	NaN	NaN	NaN
231	2.3	771.5929	1621.97253	-1033.80847	751.16235	1619.02368	-902.21198	643.34009	1582.8916	-1051.46313	628.10175	1579.42297	-921.73987	601.71082	1415.91858	-997.87573	578.84027	1099.93616	-994.96246	726.55286	1343.73865	-997.67383	775.15454	1180.5907	-1005.25879	557.20563	1236.34827	-899.65839	679.7674	1379.12708	-1153.67322	680.63049	1179.39307	-1221.67883	692.76276	1056.95947	-1232.47168	719.32654	928.86755	-1235.521	737.65051	809.58124	-1208.54956	713.12799	816.54846	-1259.00244	716.41681	729.70422	-1247.95862	681.53882	1364.245	-837.16901	701.65442	1143.38513	-761.3913	727.32489	1033.51843	-747.03003	755.41498	899.41956	-743.88593	791.34662	806.77924	-779.72723	763.79608	799.72345	-733.76172	794.96942	732.94843	-743.3017	739.64026	934.60156	-1118.00208	757.22119	944.25653	-880.83093	581.46442	956.30261	-1058.59985	592.98413	974.14038	-910.34393	698.81049	632.26434	-1174.87939	721.81299	453.34167	-1161.54846	570.55432	328.32489	-1147.03174	424.02417	185.36893	-1096.05859	378.46353	192.08411	-1050.49707	488.79715	48.99723	-1086.1759	713.59186	649.4043	-840.61487	736.27057	470.46762	-879.76447	701.0415	282.86618	-881.52966	689.89337	67.86742	-936.57874	648.18384	36.03336	-988.42096	833.93127	32.48761	-953.40826	684.10321	1682.24292	-992.43243	NaN	NaN	NaN	NaN	NaN	NaN	NaN	NaN	NaN	NaN	NaN	NaN	NaN	NaN	NaN	NaN	NaN	NaN	NaN	NaN	NaN	NaN	NaN	NaN	NaN	NaN	NaN	NaN	NaN	NaN	NaN	NaN	NaN
232	2.31	778.07703	1622.49023	-1032.78503	757.68182	1619.08875	-901.28369	650.04596	1583.00891	-1050.56262	634.85449	1579.09607	-920.81921	608.58105	1416.09973	-997.18317	585.51917	1100.26343	-994.43359	733.48511	1343.94263	-997.13312	781.83112	1180.72498	-1004.6629	563.91547	1236.6947	-899.15857	686.61572	1379.54089	-1153.1499	685.03723	1179.68152	-1221.65503	696.26935	1057.05078	-1232.31653	721.59601	928.7099	-1234.8186	737.81274	809.1712	-1207.47485	714.75854	816.60986	-1258.57019	716.22955	729.62762	-1247.66541	688.57306	1364.37891	-836.646	710.85693	1143.8999	-760.71564	738.00635	1034.40186	-746.3985	767.56488	900.70392	-743.26776	803.97577	808.27997	-779.01508	777.06573	801.09564	-732.68939	808.89087	734.7373	-742.22357	746.61694	935.25323	-1117.20703	763.58142	944.42255	-879.96289	587.99146	956.50092	-1057.927	599.56891	974.0047	-909.60345	710.04712	633.21106	-1174.6604	735.91931	454.58243	-1161.93591	586.04578	328.47668	-1147.23792	440.58688	184.53694	-1096.32617	394.51755	189.71748	-1050.59644	508.80045	49.98154	-1087.73804	718.40076	649.2959	-839.95709	740.44348	470.18533	-879.7453	703.70563	282.78796	-881.57043	690.1358	68.0012	-936.71289	648.2124	36.24414	-988.4906	834.00977	32.46601	-953.50116	690.40216	1682.36609	-991.2486	NaN	NaN	NaN	NaN	NaN	NaN	NaN	NaN	NaN	NaN	NaN	NaN	NaN	NaN	NaN	NaN	NaN	NaN	NaN	NaN	NaN	NaN	NaN	NaN	NaN	NaN	NaN	NaN	NaN	NaN	NaN	NaN	NaN
